# xmcd
#
# Track frame offsets:
# 150
# 5852
# 22652
# 42452
# 57880
# 72607
# 87446
# 105036
# 117286
# 130704
# 139785
# 162249
# 180915
# 195315
# 209909
# 230599
# 250759
# 271571
# 290171
# 308621
# 327439
# 339232
#
# Disc length: 4736 seconds
#
#
# Revision: 0
# Processed by: cddbd v1.5.2PL0 Copyright (c) Steve Scherf et al.
# Submitted via: FreeRIP 2.945 
#
DISCID=33127e16
DTITLE=Blokkmonsta and Uzi - Hirntod: Nachgeladen
DYEAR=2006
DGENRE=BukkakeGrindGoreHusoRap
TTITLE0=Intro mit Dj Reckless
TTITLE1=Der Tod mit Muerte One
TTITLE2=Jäger der Nacht mit Contraone
TTITLE3=Ewige Finsterniss mit Sady K und Tiermensch
TTITLE4=Menschenfresser
TTITLE5=Sinnlose Gewalt
TTITLE6=Fick sein Leben, fick die Nutte mit Dr. Faustus, Frauenarzt und Smoky
TTITLE7=Der Hass wächst mit J-Smart
TTITLE8=Folterkammer mit Smoky
TTITLE9=Stech in sein Herz
TTITLE10=U-Bahn/S-Bahn Mörder
TTITLE11=Ausnahmezustand mit Perverz
TTITLE12=Rap ist Männersache mit Schwartz und Akkkzt
TTITLE13=Wir stürmen deine Stadt mit DJ Korx
TTITLE14=Suizid mit Smoky und Westkone
TTITLE15=Falsche Menschen mit Dr. Faustus und Frauenarzt
TTITLE16=Zerreis dein Herz mit Hardiss
TTITLE17=Verschleppt (Ferris komm 2)
TTITLE18=Bonus: Geistig gestört mit Dr.Faustus, Kaisa, Skinny AL und Abusex
TTITLE19=Bonus: Psychose mit Dr. Faustus, Onkel Size, DJ Manny Marc and Chuky
TTITLE20=Bonus: Das System mit Jayson, Schlafwandler und Sicc
TTITLE21=Bonus: Musik aus der Klapse REMIX mit Dr. Faustus und Dr. Jekyll
EXTD=Fick dich, Atze!
EXTT0=
EXTT1=
EXTT2=
EXTT3=
EXTT4=
EXTT5=
EXTT6=
EXTT7=
EXTT8=
EXTT9=
EXTT10=
EXTT11=
EXTT12=
EXTT13=
EXTT14=
EXTT15=
EXTT16=
EXTT17=
EXTT18=
EXTT19=
EXTT20=
EXTT21=
PLAYORDER=
